<?xml version="1.0" encoding="UTF-8" standalone="no"?>
<!DOCTYPE svg PUBLIC "-//W3C//DTD SVG 1.1//EN"
 "http://www.w3.org/Graphics/SVG/1.1/DTD/svg11.dtd">
<!-- Generated by graphviz version 7.0.5 (20221223.1930)
 -->
<!-- Title: G Pages: 1 -->
<svg width="2688pt" height="548pt"
 viewBox="0.00 0.00 2688.03 548.00" xmlns="http://www.w3.org/2000/svg" xmlns:xlink="http://www.w3.org/1999/xlink">
<g id="graph0" class="graph" transform="scale(1 1) rotate(0) translate(4 544)">
<title>G</title>
<polygon fill="white" stroke="none" points="-4,4 -4,-544 2684.03,-544 2684.03,4 -4,4"/>
<!-- n1 -->
<g id="node1" class="node">
<title>n1</title>
<ellipse fill="none" stroke="black" cx="1942.29" cy="-522" rx="236.66" ry="18"/>
<text text-anchor="middle" x="1942.29" y="-518.3" font-family="Times,serif" font-size="14.00">github.com/SystemEngineeringTeam/sysken&#45;gacha&#45;backend/go</text>
</g>
<!-- n2 -->
<g id="node12" class="node">
<title>n2</title>
<ellipse fill="none" stroke="black" cx="1477.29" cy="-450" rx="143.77" ry="18"/>
<text text-anchor="middle" x="1477.29" y="-446.3" font-family="Times,serif" font-size="14.00">github.com/auth0/go&#45;jwt&#45;middleware</text>
</g>
<!-- n1&#45;&gt;n2 -->
<g id="edge1" class="edge">
<title>n1&#45;&gt;n2</title>
<path fill="none" stroke="black" d="M1838.51,-505.38C1760.7,-493.66 1654.8,-477.72 1577.79,-466.13"/>
<polygon fill="black" stroke="black" points="1578.55,-462.7 1568.14,-464.68 1577.51,-469.63 1578.55,-462.7"/>
</g>
<!-- n3 -->
<g id="node23" class="node">
<title>n3</title>
<ellipse fill="none" stroke="black" cx="1028.29" cy="-378" rx="129.98" ry="18"/>
<text text-anchor="middle" x="1028.29" y="-374.3" font-family="Times,serif" font-size="14.00">github.com/form3tech&#45;oss/jwt&#45;go</text>
</g>
<!-- n1&#45;&gt;n3 -->
<g id="edge2" class="edge">
<title>n1&#45;&gt;n3</title>
<path fill="none" stroke="black" d="M1730.93,-513.68C1610.86,-506.84 1458.22,-493.59 1324.29,-468 1238.2,-451.55 1141.47,-419.86 1082.72,-399.08"/>
<polygon fill="black" stroke="black" points="1084.23,-395.9 1073.63,-395.84 1081.88,-402.49 1084.23,-395.9"/>
</g>
<!-- n4 -->
<g id="node32" class="node">
<title>n4</title>
<ellipse fill="none" stroke="black" cx="1831.29" cy="-450" rx="100.98" ry="18"/>
<text text-anchor="middle" x="1831.29" y="-446.3" font-family="Times,serif" font-size="14.00">github.com/gin&#45;gonic/gin</text>
</g>
<!-- n1&#45;&gt;n4 -->
<g id="edge3" class="edge">
<title>n1&#45;&gt;n4</title>
<path fill="none" stroke="black" d="M1914.85,-503.7C1900.39,-494.58 1882.48,-483.28 1866.96,-473.49"/>
<polygon fill="black" stroke="black" points="1869.25,-470.8 1858.93,-468.43 1865.52,-476.72 1869.25,-470.8"/>
</g>
<!-- n5 -->
<g id="node33" class="node">
<title>n5</title>
<ellipse fill="none" stroke="black" cx="2054.29" cy="-450" rx="104.78" ry="18"/>
<text text-anchor="middle" x="2054.29" y="-446.3" font-family="Times,serif" font-size="14.00">github.com/joho/godotenv</text>
</g>
<!-- n1&#45;&gt;n5 -->
<g id="edge4" class="edge">
<title>n1&#45;&gt;n5</title>
<path fill="none" stroke="black" d="M1969.98,-503.7C1984.46,-494.64 2002.37,-483.45 2017.96,-473.71"/>
<polygon fill="black" stroke="black" points="2019.4,-476.93 2026.03,-468.66 2015.69,-471 2019.4,-476.93"/>
</g>
<!-- n6 -->
<g id="node34" class="node">
<title>n6</title>
<ellipse fill="none" stroke="black" cx="2288.29" cy="-450" rx="111.58" ry="18"/>
<text text-anchor="middle" x="2288.29" y="-446.3" font-family="Times,serif" font-size="14.00">github.com/mattn/go&#45;sqlite3</text>
</g>
<!-- n1&#45;&gt;n6 -->
<g id="edge5" class="edge">
<title>n1&#45;&gt;n6</title>
<path fill="none" stroke="black" d="M2022.98,-504.68C2079.11,-493.32 2153.59,-478.25 2209.35,-466.97"/>
<polygon fill="black" stroke="black" points="2210,-470.41 2219.11,-465 2208.61,-463.55 2210,-470.41"/>
</g>
<!-- n7 -->
<g id="node35" class="node">
<title>n7</title>
<ellipse fill="none" stroke="black" cx="2544.29" cy="-450" rx="105.08" ry="18"/>
<text text-anchor="middle" x="2544.29" y="-446.3" font-family="Times,serif" font-size="14.00">golang.org/x/crypto/bcrypt</text>
</g>
<!-- n1&#45;&gt;n7 -->
<g id="edge6" class="edge">
<title>n1&#45;&gt;n7</title>
<path fill="none" stroke="black" d="M2073.18,-506.58C2166.83,-496.16 2295.86,-481.58 2409.29,-468 2422.71,-466.39 2436.87,-464.66 2450.78,-462.93"/>
<polygon fill="black" stroke="black" points="2450.86,-466.44 2460.35,-461.73 2449.99,-459.5 2450.86,-466.44"/>
</g>
<!-- n10 -->
<g id="node2" class="node">
<title>n10</title>
<ellipse fill="none" stroke="black" cx="1580.29" cy="-378" rx="126.18" ry="18"/>
<text text-anchor="middle" x="1580.29" y="-374.3" font-family="Times,serif" font-size="14.00">github.com/gin&#45;gonic/gin/render</text>
</g>
<!-- n15 -->
<g id="node7" class="node">
<title>n15</title>
<ellipse fill="none" stroke="black" cx="1128.29" cy="-306" rx="124.28" ry="18"/>
<text text-anchor="middle" x="1128.29" y="-302.3" font-family="Times,serif" font-size="14.00">github.com/pelletier/go&#45;toml/v2</text>
</g>
<!-- n10&#45;&gt;n15 -->
<g id="edge7" class="edge">
<title>n10&#45;&gt;n15</title>
<path fill="none" stroke="black" d="M1496.86,-364.08C1419.02,-352.02 1303.05,-334.06 1222.04,-321.52"/>
<polygon fill="black" stroke="black" points="1222.77,-318.09 1212.35,-320.02 1221.7,-325.01 1222.77,-318.09"/>
</g>
<!-- n16 -->
<g id="node8" class="node">
<title>n16</title>
<ellipse fill="none" stroke="black" cx="1379.29" cy="-306" rx="108.58" ry="18"/>
<text text-anchor="middle" x="1379.29" y="-302.3" font-family="Times,serif" font-size="14.00">github.com/ugorji/go/codec</text>
</g>
<!-- n10&#45;&gt;n16 -->
<g id="edge8" class="edge">
<title>n10&#45;&gt;n16</title>
<path fill="none" stroke="black" d="M1533.92,-360.85C1504.47,-350.6 1466.18,-337.26 1435.06,-326.42"/>
<polygon fill="black" stroke="black" points="1436.41,-323.19 1425.81,-323.2 1434.11,-329.8 1436.41,-323.19"/>
</g>
<!-- n17 -->
<g id="node9" class="node">
<title>n17</title>
<ellipse fill="none" stroke="black" cx="1634.29" cy="-306" rx="128.88" ry="18"/>
<text text-anchor="middle" x="1634.29" y="-302.3" font-family="Times,serif" font-size="14.00">google.golang.org/protobuf/proto</text>
</g>
<!-- n10&#45;&gt;n17 -->
<g id="edge9" class="edge">
<title>n10&#45;&gt;n17</title>
<path fill="none" stroke="black" d="M1593.64,-359.7C1599.85,-351.64 1607.37,-341.89 1614.25,-332.98"/>
<polygon fill="black" stroke="black" points="1616.83,-335.36 1620.17,-325.3 1611.29,-331.08 1616.83,-335.36"/>
</g>
<!-- n18 -->
<g id="node10" class="node">
<title>n18</title>
<ellipse fill="none" stroke="black" cx="912.29" cy="-306" rx="73.39" ry="18"/>
<text text-anchor="middle" x="912.29" y="-302.3" font-family="Times,serif" font-size="14.00">gopkg.in/yaml.v2</text>
</g>
<!-- n10&#45;&gt;n18 -->
<g id="edge10" class="edge">
<title>n10&#45;&gt;n18</title>
<path fill="none" stroke="black" d="M1489.95,-365.05C1475.04,-363.24 1459.74,-361.49 1445.29,-360 1245.71,-339.46 1193.94,-352.18 995.29,-324 989.19,-323.13 982.87,-322.1 976.56,-320.97"/>
<polygon fill="black" stroke="black" points="977.22,-317.53 966.74,-319.13 975.93,-324.41 977.22,-317.53"/>
</g>
<!-- n11 -->
<g id="node3" class="node">
<title>n11</title>
<ellipse fill="none" stroke="black" cx="1831.29" cy="-378" rx="107.48" ry="18"/>
<text text-anchor="middle" x="1831.29" y="-374.3" font-family="Times,serif" font-size="14.00">github.com/mattn/go&#45;isatty</text>
</g>
<!-- n25 -->
<g id="node18" class="node">
<title>n25</title>
<ellipse fill="none" stroke="black" cx="1868.29" cy="-306" rx="87.18" ry="18"/>
<text text-anchor="middle" x="1868.29" y="-302.3" font-family="Times,serif" font-size="14.00">golang.org/x/sys/unix</text>
</g>
<!-- n11&#45;&gt;n25 -->
<g id="edge11" class="edge">
<title>n11&#45;&gt;n25</title>
<path fill="none" stroke="black" d="M1840.44,-359.7C1844.51,-351.98 1849.41,-342.71 1853.96,-334.11"/>
<polygon fill="black" stroke="black" points="1856.96,-335.92 1858.54,-325.44 1850.78,-332.65 1856.96,-335.92"/>
</g>
<!-- n12 -->
<g id="node4" class="node">
<title>n12</title>
<ellipse fill="none" stroke="black" cx="2062.29" cy="-306" rx="89.08" ry="18"/>
<text text-anchor="middle" x="2062.29" y="-302.3" font-family="Times,serif" font-size="14.00">golang.org/x/net/http2</text>
</g>
<!-- n27 -->
<g id="node20" class="node">
<title>n27</title>
<ellipse fill="none" stroke="black" cx="2062.29" cy="-234" rx="115.88" ry="18"/>
<text text-anchor="middle" x="2062.29" y="-230.3" font-family="Times,serif" font-size="14.00">golang.org/x/net/http/httpguts</text>
</g>
<!-- n12&#45;&gt;n27 -->
<g id="edge12" class="edge">
<title>n12&#45;&gt;n27</title>
<path fill="none" stroke="black" d="M2062.29,-287.7C2062.29,-280.41 2062.29,-271.73 2062.29,-263.54"/>
<polygon fill="black" stroke="black" points="2065.79,-263.62 2062.29,-253.62 2058.79,-263.62 2065.79,-263.62"/>
</g>
<!-- n28 -->
<g id="node21" class="node">
<title>n28</title>
<ellipse fill="none" stroke="black" cx="2028.29" cy="-162" rx="86.38" ry="18"/>
<text text-anchor="middle" x="2028.29" y="-158.3" font-family="Times,serif" font-size="14.00">golang.org/x/net/idna</text>
</g>
<!-- n12&#45;&gt;n28 -->
<g id="edge14" class="edge">
<title>n12&#45;&gt;n28</title>
<path fill="none" stroke="black" d="M1998.04,-293.19C1974.89,-285.5 1951.09,-272.83 1937.29,-252 1928.46,-238.66 1929.32,-229.87 1937.29,-216 1945.51,-201.7 1959.23,-190.9 1973.56,-182.91"/>
<polygon fill="black" stroke="black" points="1974.86,-186.18 1982.17,-178.5 1971.67,-179.94 1974.86,-186.18"/>
</g>
<!-- n29 -->
<g id="node22" class="node">
<title>n29</title>
<ellipse fill="none" stroke="black" cx="2308.29" cy="-234" rx="112.38" ry="18"/>
<text text-anchor="middle" x="2308.29" y="-230.3" font-family="Times,serif" font-size="14.00">golang.org/x/net/http2/hpack</text>
</g>
<!-- n12&#45;&gt;n29 -->
<g id="edge13" class="edge">
<title>n12&#45;&gt;n29</title>
<path fill="none" stroke="black" d="M2112.37,-290.75C2150.33,-279.95 2202.8,-265.02 2243.88,-253.33"/>
<polygon fill="black" stroke="black" points="2244.76,-256.72 2253.42,-250.61 2242.84,-249.98 2244.76,-256.72"/>
</g>
<!-- n13 -->
<g id="node5" class="node">
<title>n13</title>
<ellipse fill="none" stroke="black" cx="2099.29" cy="-378" rx="104.78" ry="18"/>
<text text-anchor="middle" x="2099.29" y="-374.3" font-family="Times,serif" font-size="14.00">golang.org/x/net/http2/h2c</text>
</g>
<!-- n13&#45;&gt;n12 -->
<g id="edge16" class="edge">
<title>n13&#45;&gt;n12</title>
<path fill="none" stroke="black" d="M2090.14,-359.7C2086.07,-351.98 2081.17,-342.71 2076.62,-334.11"/>
<polygon fill="black" stroke="black" points="2079.81,-332.65 2072.04,-325.44 2073.62,-335.92 2079.81,-332.65"/>
</g>
<!-- n13&#45;&gt;n27 -->
<g id="edge15" class="edge">
<title>n13&#45;&gt;n27</title>
<path fill="none" stroke="black" d="M2127.69,-360.3C2140.16,-351.29 2153.48,-338.94 2160.29,-324 2166.93,-309.44 2168.48,-301.74 2160.29,-288 2151.88,-273.89 2138.27,-263.31 2123.83,-255.47"/>
<polygon fill="black" stroke="black" points="2125.63,-252.46 2115.12,-251.15 2122.52,-258.73 2125.63,-252.46"/>
</g>
<!-- n13&#45;&gt;n29 -->
<g id="edge17" class="edge">
<title>n13&#45;&gt;n29</title>
<path fill="none" stroke="black" d="M2124.09,-360.15C2161.4,-334.8 2232.11,-286.76 2274.23,-258.14"/>
<polygon fill="black" stroke="black" points="2275.97,-261.19 2282.28,-252.68 2272.04,-255.4 2275.97,-261.19"/>
</g>
<!-- n14 -->
<g id="node6" class="node">
<title>n14</title>
<ellipse fill="none" stroke="black" cx="666.29" cy="-306" rx="154.87" ry="18"/>
<text text-anchor="middle" x="666.29" y="-302.3" font-family="Times,serif" font-size="14.00">github.com/go&#45;playground/validator/v10</text>
</g>
<!-- n21 -->
<g id="node14" class="node">
<title>n21</title>
<ellipse fill="none" stroke="black" cx="404.29" cy="-234" rx="176.27" ry="18"/>
<text text-anchor="middle" x="404.29" y="-230.3" font-family="Times,serif" font-size="14.00">github.com/go&#45;playground/universal&#45;translator</text>
</g>
<!-- n14&#45;&gt;n21 -->
<g id="edge18" class="edge">
<title>n14&#45;&gt;n21</title>
<path fill="none" stroke="black" d="M606.18,-288.94C567.57,-278.62 517.2,-265.17 476.44,-254.28"/>
<polygon fill="black" stroke="black" points="477.51,-250.94 466.94,-251.74 475.7,-257.7 477.51,-250.94"/>
</g>
<!-- n22 -->
<g id="node15" class="node">
<title>n22</title>
<ellipse fill="none" stroke="black" cx="704.29" cy="-234" rx="105.88" ry="18"/>
<text text-anchor="middle" x="704.29" y="-230.3" font-family="Times,serif" font-size="14.00">github.com/leodido/go&#45;urn</text>
</g>
<!-- n14&#45;&gt;n22 -->
<g id="edge19" class="edge">
<title>n14&#45;&gt;n22</title>
<path fill="none" stroke="black" d="M675.68,-287.7C679.87,-279.98 684.9,-270.71 689.57,-262.11"/>
<polygon fill="black" stroke="black" points="692.59,-263.89 694.28,-253.43 686.44,-260.55 692.59,-263.89"/>
</g>
<!-- n23 -->
<g id="node16" class="node">
<title>n23</title>
<ellipse fill="none" stroke="black" cx="927.29" cy="-234" rx="98.58" ry="18"/>
<text text-anchor="middle" x="927.29" y="-230.3" font-family="Times,serif" font-size="14.00">golang.org/x/crypto/sha3</text>
</g>
<!-- n14&#45;&gt;n23 -->
<g id="edge20" class="edge">
<title>n14&#45;&gt;n23</title>
<path fill="none" stroke="black" d="M726.17,-288.94C766.92,-278.01 820.83,-263.55 862.58,-252.36"/>
<polygon fill="black" stroke="black" points="863.24,-255.8 872,-249.83 861.43,-249.04 863.24,-255.8"/>
</g>
<!-- n24 -->
<g id="node17" class="node">
<title>n24</title>
<ellipse fill="none" stroke="black" cx="105.29" cy="-234" rx="105.08" ry="18"/>
<text text-anchor="middle" x="105.29" y="-230.3" font-family="Times,serif" font-size="14.00">golang.org/x/text/language</text>
</g>
<!-- n14&#45;&gt;n24 -->
<g id="edge21" class="edge">
<title>n14&#45;&gt;n24</title>
<path fill="none" stroke="black" d="M556.87,-292.95C466.3,-282.76 334.31,-267.39 219.29,-252 210.71,-250.85 201.78,-249.61 192.86,-248.33"/>
<polygon fill="black" stroke="black" points="193.49,-244.88 183.09,-246.92 192.49,-251.81 193.49,-244.88"/>
</g>
<!-- n34 -->
<g id="node28" class="node">
<title>n34</title>
<ellipse fill="none" stroke="black" cx="1474.29" cy="-90" rx="178.97" ry="18"/>
<text text-anchor="middle" x="1474.29" y="-86.3" font-family="Times,serif" font-size="14.00">google.golang.org/protobuf/encoding/protowire</text>
</g>
<!-- n17&#45;&gt;n34 -->
<g id="edge22" class="edge">
<title>n17&#45;&gt;n34</title>
<path fill="none" stroke="black" d="M1737.51,-294.89C1804.15,-283.93 1872.81,-261.47 1840.29,-216 1792.45,-149.11 1706.61,-117.61 1630.09,-102.95"/>
<polygon fill="black" stroke="black" points="1630.82,-99.53 1620.36,-101.18 1629.57,-106.42 1630.82,-99.53"/>
</g>
<!-- n35 -->
<g id="node29" class="node">
<title>n35</title>
<ellipse fill="none" stroke="black" cx="1377.29" cy="-162" rx="176.27" ry="18"/>
<text text-anchor="middle" x="1377.29" y="-158.3" font-family="Times,serif" font-size="14.00">google.golang.org/protobuf/reflect/protoreflect</text>
</g>
<!-- n17&#45;&gt;n35 -->
<g id="edge23" class="edge">
<title>n17&#45;&gt;n35</title>
<path fill="none" stroke="black" d="M1541.86,-293.08C1526.96,-291.29 1511.71,-289.53 1497.29,-288 1452.15,-283.2 1120.95,-285.49 1090.29,-252 1044.7,-202.19 1118.58,-180 1202.78,-170.23"/>
<polygon fill="black" stroke="black" points="1203.1,-173.72 1212.67,-169.15 1202.35,-166.76 1203.1,-173.72"/>
</g>
<!-- n36 -->
<g id="node30" class="node">
<title>n36</title>
<ellipse fill="none" stroke="black" cx="1280.29" cy="-234" rx="180.87" ry="18"/>
<text text-anchor="middle" x="1280.29" y="-230.3" font-family="Times,serif" font-size="14.00">google.golang.org/protobuf/reflect/protoregistry</text>
</g>
<!-- n17&#45;&gt;n36 -->
<g id="edge24" class="edge">
<title>n17&#45;&gt;n36</title>
<path fill="none" stroke="black" d="M1562.23,-290.75C1506.87,-279.8 1430.07,-264.62 1370.61,-252.86"/>
<polygon fill="black" stroke="black" points="1371.31,-249.43 1360.82,-250.92 1369.95,-256.3 1371.31,-249.43"/>
</g>
<!-- n37 -->
<g id="node31" class="node">
<title>n37</title>
<ellipse fill="none" stroke="black" cx="1655.29" cy="-234" rx="176.27" ry="18"/>
<text text-anchor="middle" x="1655.29" y="-230.3" font-family="Times,serif" font-size="14.00">google.golang.org/protobuf/runtime/protoiface</text>
</g>
<!-- n17&#45;&gt;n37 -->
<g id="edge25" class="edge">
<title>n17&#45;&gt;n37</title>
<path fill="none" stroke="black" d="M1639.48,-287.7C1641.72,-280.24 1644.39,-271.32 1646.9,-262.97"/>
<polygon fill="black" stroke="black" points="1650.2,-264.14 1649.72,-253.55 1643.5,-262.13 1650.2,-264.14"/>
</g>
<!-- n19 -->
<g id="node11" class="node">
<title>n19</title>
<ellipse fill="none" stroke="black" cx="404.29" cy="-162" rx="131.88" ry="18"/>
<text text-anchor="middle" x="404.29" y="-158.3" font-family="Times,serif" font-size="14.00">github.com/go&#45;playground/locales</text>
</g>
<!-- n20 -->
<g id="node13" class="node">
<title>n20</title>
<ellipse fill="none" stroke="black" cx="404.29" cy="-90" rx="165.17" ry="18"/>
<text text-anchor="middle" x="404.29" y="-86.3" font-family="Times,serif" font-size="14.00">github.com/go&#45;playground/locales/currency</text>
</g>
<!-- n19&#45;&gt;n20 -->
<g id="edge26" class="edge">
<title>n19&#45;&gt;n20</title>
<path fill="none" stroke="black" d="M404.29,-143.7C404.29,-136.41 404.29,-127.73 404.29,-119.54"/>
<polygon fill="black" stroke="black" points="407.79,-119.62 404.29,-109.62 400.79,-119.62 407.79,-119.62"/>
</g>
<!-- n2&#45;&gt;n3 -->
<g id="edge27" class="edge">
<title>n2&#45;&gt;n3</title>
<path fill="none" stroke="black" d="M1389.65,-435.34C1313.15,-423.41 1202.36,-406.14 1123.66,-393.87"/>
<polygon fill="black" stroke="black" points="1124.2,-390.41 1113.78,-392.33 1123.13,-397.33 1124.2,-390.41"/>
</g>
<!-- n21&#45;&gt;n19 -->
<g id="edge28" class="edge">
<title>n21&#45;&gt;n19</title>
<path fill="none" stroke="black" d="M404.29,-215.7C404.29,-208.41 404.29,-199.73 404.29,-191.54"/>
<polygon fill="black" stroke="black" points="407.79,-191.62 404.29,-181.62 400.79,-191.62 407.79,-191.62"/>
</g>
<!-- n26 -->
<g id="node19" class="node">
<title>n26</title>
<ellipse fill="none" stroke="black" cx="2566.29" cy="-378" rx="113.98" ry="18"/>
<text text-anchor="middle" x="2566.29" y="-374.3" font-family="Times,serif" font-size="14.00">golang.org/x/crypto/blowfish</text>
</g>
<!-- n27&#45;&gt;n28 -->
<g id="edge29" class="edge">
<title>n27&#45;&gt;n28</title>
<path fill="none" stroke="black" d="M2053.89,-215.7C2050.18,-208.07 2045.74,-198.92 2041.6,-190.4"/>
<polygon fill="black" stroke="black" points="2044.78,-188.93 2037.26,-181.47 2038.48,-191.99 2044.78,-188.93"/>
</g>
<!-- n30 -->
<g id="node24" class="node">
<title>n30</title>
<ellipse fill="none" stroke="black" cx="2028.29" cy="-90" rx="126.18" ry="18"/>
<text text-anchor="middle" x="2028.29" y="-86.3" font-family="Times,serif" font-size="14.00">golang.org/x/text/secure/bidirule</text>
</g>
<!-- n28&#45;&gt;n30 -->
<g id="edge30" class="edge">
<title>n28&#45;&gt;n30</title>
<path fill="none" stroke="black" d="M2028.29,-143.7C2028.29,-136.41 2028.29,-127.73 2028.29,-119.54"/>
<polygon fill="black" stroke="black" points="2031.79,-119.62 2028.29,-109.62 2024.79,-119.62 2031.79,-119.62"/>
</g>
<!-- n31 -->
<g id="node25" class="node">
<title>n31</title>
<ellipse fill="none" stroke="black" cx="1951.29" cy="-18" rx="117.78" ry="18"/>
<text text-anchor="middle" x="1951.29" y="-14.3" font-family="Times,serif" font-size="14.00">golang.org/x/text/unicode/bidi</text>
</g>
<!-- n28&#45;&gt;n31 -->
<g id="edge31" class="edge">
<title>n28&#45;&gt;n31</title>
<path fill="none" stroke="black" d="M1959.75,-150.66C1934.54,-143.17 1908.47,-130.26 1893.29,-108 1884.28,-94.78 1886.84,-86.64 1893.29,-72 1898.17,-60.93 1906.63,-51.18 1915.6,-43.15"/>
<polygon fill="black" stroke="black" points="1917.61,-46.02 1923.09,-36.96 1913.15,-40.63 1917.61,-46.02"/>
</g>
<!-- n32 -->
<g id="node26" class="node">
<title>n32</title>
<ellipse fill="none" stroke="black" cx="2295.29" cy="-90" rx="122.68" ry="18"/>
<text text-anchor="middle" x="2295.29" y="-86.3" font-family="Times,serif" font-size="14.00">golang.org/x/text/unicode/norm</text>
</g>
<!-- n28&#45;&gt;n32 -->
<g id="edge32" class="edge">
<title>n28&#45;&gt;n32</title>
<path fill="none" stroke="black" d="M2080.72,-147.25C2122.39,-136.33 2181.02,-120.96 2226.47,-109.04"/>
<polygon fill="black" stroke="black" points="2227.17,-112.48 2235.96,-106.56 2225.4,-105.71 2227.17,-112.48"/>
</g>
<!-- n30&#45;&gt;n31 -->
<g id="edge34" class="edge">
<title>n30&#45;&gt;n31</title>
<path fill="none" stroke="black" d="M2009.65,-72.05C2000.26,-63.52 1988.7,-53.01 1978.36,-43.61"/>
<polygon fill="black" stroke="black" points="1980.9,-41.19 1971.15,-37.05 1976.19,-46.37 1980.9,-41.19"/>
</g>
<!-- n33 -->
<g id="node27" class="node">
<title>n33</title>
<ellipse fill="none" stroke="black" cx="2245.29" cy="-18" rx="108.58" ry="18"/>
<text text-anchor="middle" x="2245.29" y="-14.3" font-family="Times,serif" font-size="14.00">golang.org/x/text/transform</text>
</g>
<!-- n30&#45;&gt;n33 -->
<g id="edge33" class="edge">
<title>n30&#45;&gt;n33</title>
<path fill="none" stroke="black" d="M2077.8,-73.03C2110.08,-62.61 2152.38,-48.97 2186.38,-38"/>
<polygon fill="black" stroke="black" points="2187.23,-41.41 2195.67,-35.01 2185.08,-34.75 2187.23,-41.41"/>
</g>
<!-- n32&#45;&gt;n33 -->
<g id="edge35" class="edge">
<title>n32&#45;&gt;n33</title>
<path fill="none" stroke="black" d="M2282.93,-71.7C2277.24,-63.73 2270.36,-54.1 2264.05,-45.26"/>
<polygon fill="black" stroke="black" points="2267.05,-43.44 2258.39,-37.34 2261.35,-47.51 2267.05,-43.44"/>
</g>
<!-- n35&#45;&gt;n34 -->
<g id="edge36" class="edge">
<title>n35&#45;&gt;n34</title>
<path fill="none" stroke="black" d="M1401.27,-143.7C1413.37,-134.97 1428.23,-124.24 1441.38,-114.75"/>
<polygon fill="black" stroke="black" points="1443.3,-117.68 1449.36,-108.99 1439.2,-112 1443.3,-117.68"/>
</g>
<!-- n36&#45;&gt;n35 -->
<g id="edge37" class="edge">
<title>n36&#45;&gt;n35</title>
<path fill="none" stroke="black" d="M1304.27,-215.7C1316.37,-206.97 1331.23,-196.24 1344.38,-186.75"/>
<polygon fill="black" stroke="black" points="1346.3,-189.68 1352.36,-180.99 1342.2,-184 1346.3,-189.68"/>
</g>
<!-- n37&#45;&gt;n35 -->
<g id="edge38" class="edge">
<title>n37&#45;&gt;n35</title>
<path fill="none" stroke="black" d="M1591.16,-216.85C1549.86,-206.45 1495.99,-192.89 1452.64,-181.97"/>
<polygon fill="black" stroke="black" points="1453.6,-178.6 1443.04,-179.56 1451.89,-185.39 1453.6,-178.6"/>
</g>
<!-- n4&#45;&gt;n10 -->
<g id="edge41" class="edge">
<title>n4&#45;&gt;n10</title>
<path fill="none" stroke="black" d="M1778.37,-434.24C1740.16,-423.58 1688.28,-409.12 1647.2,-397.66"/>
<polygon fill="black" stroke="black" points="1648.22,-394.31 1637.65,-395 1646.34,-401.05 1648.22,-394.31"/>
</g>
<!-- n4&#45;&gt;n11 -->
<g id="edge42" class="edge">
<title>n4&#45;&gt;n11</title>
<path fill="none" stroke="black" d="M1831.29,-431.7C1831.29,-424.41 1831.29,-415.73 1831.29,-407.54"/>
<polygon fill="black" stroke="black" points="1834.79,-407.62 1831.29,-397.62 1827.79,-407.62 1834.79,-407.62"/>
</g>
<!-- n4&#45;&gt;n12 -->
<g id="edge43" class="edge">
<title>n4&#45;&gt;n12</title>
<path fill="none" stroke="black" d="M1874.41,-433.28C1897.05,-424.06 1924.71,-411.23 1947.29,-396 1966.58,-382.99 1967.21,-374.64 1985.29,-360 1998.38,-349.4 2013.52,-338.68 2026.89,-329.68"/>
<polygon fill="black" stroke="black" points="2028.6,-332.75 2034.99,-324.3 2024.73,-326.92 2028.6,-332.75"/>
</g>
<!-- n4&#45;&gt;n13 -->
<g id="edge44" class="edge">
<title>n4&#45;&gt;n13</title>
<path fill="none" stroke="black" d="M1886.5,-434.58C1928.73,-423.55 1987.17,-408.29 2032.12,-396.55"/>
<polygon fill="black" stroke="black" points="2032.98,-399.94 2041.77,-394.02 2031.21,-393.16 2032.98,-399.94"/>
</g>
<!-- n8 -->
<g id="node36" class="node">
<title>n8</title>
<ellipse fill="none" stroke="black" cx="2328.29" cy="-378" rx="105.88" ry="18"/>
<text text-anchor="middle" x="2328.29" y="-374.3" font-family="Times,serif" font-size="14.00">github.com/gin&#45;contrib/sse</text>
</g>
<!-- n4&#45;&gt;n8 -->
<g id="edge39" class="edge">
<title>n4&#45;&gt;n8</title>
<path fill="none" stroke="black" d="M1904.84,-437.29C1916.69,-435.47 1928.82,-433.65 1940.29,-432 2061.43,-414.57 2092.09,-412.95 2213.29,-396 2221.79,-394.81 2230.65,-393.55 2239.5,-392.27"/>
<polygon fill="black" stroke="black" points="2239.79,-395.76 2249.18,-390.86 2238.78,-388.83 2239.79,-395.76"/>
</g>
<!-- n9 -->
<g id="node37" class="node">
<title>n9</title>
<ellipse fill="none" stroke="black" cx="1306.29" cy="-378" rx="129.98" ry="18"/>
<text text-anchor="middle" x="1306.29" y="-374.3" font-family="Times,serif" font-size="14.00">github.com/gin&#45;gonic/gin/binding</text>
</g>
<!-- n4&#45;&gt;n9 -->
<g id="edge40" class="edge">
<title>n4&#45;&gt;n9</title>
<path fill="none" stroke="black" d="M1752.12,-438.44C1660.55,-426.23 1509.52,-406.1 1408.99,-392.69"/>
<polygon fill="black" stroke="black" points="1409.47,-389.23 1399.09,-391.37 1408.54,-396.16 1409.47,-389.23"/>
</g>
<!-- n7&#45;&gt;n26 -->
<g id="edge45" class="edge">
<title>n7&#45;&gt;n26</title>
<path fill="none" stroke="black" d="M2549.73,-431.7C2552.07,-424.24 2554.88,-415.32 2557.5,-406.97"/>
<polygon fill="black" stroke="black" points="2560.8,-408.14 2560.46,-397.55 2554.12,-406.04 2560.8,-408.14"/>
</g>
<!-- n9&#45;&gt;n14 -->
<g id="edge46" class="edge">
<title>n9&#45;&gt;n14</title>
<path fill="none" stroke="black" d="M1212.1,-365.27C1197.12,-363.46 1181.78,-361.65 1167.29,-360 1096.82,-351.96 914.55,-332.84 790.43,-319.9"/>
<polygon fill="black" stroke="black" points="790.79,-316.42 780.48,-318.86 790.07,-323.38 790.79,-316.42"/>
</g>
<!-- n9&#45;&gt;n15 -->
<g id="edge47" class="edge">
<title>n9&#45;&gt;n15</title>
<path fill="none" stroke="black" d="M1264.56,-360.59C1239.54,-350.75 1207.5,-338.15 1180.78,-327.64"/>
<polygon fill="black" stroke="black" points="1182.07,-324.39 1171.48,-323.98 1179.5,-330.9 1182.07,-324.39"/>
</g>
<!-- n9&#45;&gt;n16 -->
<g id="edge48" class="edge">
<title>n9&#45;&gt;n16</title>
<path fill="none" stroke="black" d="M1324.34,-359.7C1333.09,-351.3 1343.76,-341.07 1353.36,-331.86"/>
<polygon fill="black" stroke="black" points="1355.57,-334.6 1360.36,-325.15 1350.72,-329.55 1355.57,-334.6"/>
</g>
<!-- n9&#45;&gt;n17 -->
<g id="edge49" class="edge">
<title>n9&#45;&gt;n17</title>
<path fill="none" stroke="black" d="M1375.05,-362.33C1427.42,-351.15 1499.62,-335.74 1554.53,-324.02"/>
<polygon fill="black" stroke="black" points="1555.09,-327.48 1564.14,-321.97 1553.63,-320.64 1555.09,-327.48"/>
</g>
<!-- n9&#45;&gt;n18 -->
<g id="edge50" class="edge">
<title>n9&#45;&gt;n18</title>
<path fill="none" stroke="black" d="M1223.65,-363.68C1160.91,-353.39 1072.54,-338.49 995.29,-324 989.65,-322.94 983.81,-321.81 977.95,-320.66"/>
<polygon fill="black" stroke="black" points="978.68,-317.24 968.19,-318.71 977.31,-324.1 978.68,-317.24"/>
</g>
</g>
</svg>
